<svg xmlns="http://www.w3.org/2000/svg" xmlns:xlink="http://www.w3.org/1999/xlink" width="219" zoomAndPan="magnify" viewBox="0 0 164.25 159.000002" height="212" preserveAspectRatio="xMidYMid meet" version="1.0"><defs><g/><clipPath id="b63c9eba97"><path d="M 23.824219 0 L 139.390625 0 L 139.390625 115.566406 L 23.824219 115.566406 Z M 23.824219 0 " clip-rule="nonzero"/></clipPath></defs><g clip-path="url(#b63c9eba97)"><path fill="#00b37e" d="M 88.792969 3.011719 L 136.378906 50.597656 C 140.328125 54.546875 140.328125 60.949219 136.378906 64.898438 L 88.671875 112.605469 C 84.722656 116.554688 78.316406 116.554688 74.367188 112.605469 L 26.957031 65.195312 C 22.847656 61.082031 22.847656 54.414062 26.957031 50.300781 L 74.246094 3.011719 C 78.261719 -1.003906 84.777344 -1.003906 88.792969 3.011719 " fill-opacity="1" fill-rule="nonzero"/></g><path fill="#bdc3c7" d="M 66.550781 62.027344 L 96.488281 62.027344 L 96.488281 53.472656 L 66.550781 53.472656 Z M 66.550781 62.027344 " fill-opacity="1" fill-rule="nonzero"/><path fill="#546a79" d="M 50.515625 68.441406 C 47.5625 68.441406 45.167969 66.046875 45.167969 63.09375 L 45.167969 52.402344 C 45.167969 49.449219 47.5625 47.058594 50.515625 47.058594 C 53.46875 47.058594 55.859375 49.449219 55.859375 52.402344 L 55.859375 63.09375 C 55.859375 66.046875 53.46875 68.441406 50.515625 68.441406 " fill-opacity="1" fill-rule="nonzero"/><path fill="#38454f" d="M 61.207031 72.714844 C 58.253906 72.714844 55.859375 70.324219 55.859375 67.371094 L 55.859375 48.125 C 55.859375 45.171875 58.253906 42.78125 61.207031 42.78125 C 64.160156 42.78125 66.550781 45.171875 66.550781 48.125 L 66.550781 67.371094 C 66.550781 70.324219 64.160156 72.714844 61.207031 72.714844 " fill-opacity="1" fill-rule="nonzero"/><path fill="#546a79" d="M 112.523438 47.058594 C 115.476562 47.058594 117.871094 49.449219 117.871094 52.402344 L 117.871094 63.09375 C 117.871094 66.046875 115.476562 68.441406 112.523438 68.441406 C 109.570312 68.441406 107.179688 66.046875 107.179688 63.09375 L 107.179688 52.402344 C 107.179688 49.449219 109.570312 47.058594 112.523438 47.058594 " fill-opacity="1" fill-rule="nonzero"/><path fill="#38454f" d="M 101.832031 42.78125 C 104.785156 42.78125 107.179688 45.171875 107.179688 48.125 L 107.179688 67.371094 C 107.179688 70.324219 104.785156 72.714844 101.832031 72.714844 C 98.878906 72.714844 96.488281 70.324219 96.488281 67.371094 L 96.488281 48.125 C 96.488281 45.171875 98.878906 42.78125 101.832031 42.78125 " fill-opacity="1" fill-rule="nonzero"/><g fill="#ffffff" fill-opacity="1"><g transform="translate(26.835701, 144.211128)"><g><path d="M 14.671875 -5.46875 C 14.460938 -3.644531 13.789062 -2.238281 12.65625 -1.25 C 11.519531 -0.257812 10.015625 0.234375 8.140625 0.234375 C 6.109375 0.234375 4.476562 -0.492188 3.25 -1.953125 C 2.019531 -3.410156 1.40625 -5.363281 1.40625 -7.8125 L 1.40625 -9.46875 C 1.40625 -11.070312 1.691406 -12.476562 2.265625 -13.6875 C 2.835938 -14.90625 3.644531 -15.835938 4.6875 -16.484375 C 5.738281 -17.140625 6.957031 -17.46875 8.34375 -17.46875 C 10.175781 -17.46875 11.644531 -16.957031 12.75 -15.9375 C 13.851562 -14.914062 14.492188 -13.5 14.671875 -11.6875 L 12.390625 -11.6875 C 12.191406 -13.0625 11.765625 -14.054688 11.109375 -14.671875 C 10.453125 -15.285156 9.53125 -15.59375 8.34375 -15.59375 C 6.894531 -15.59375 5.753906 -15.054688 4.921875 -13.984375 C 4.097656 -12.910156 3.6875 -11.382812 3.6875 -9.40625 L 3.6875 -7.734375 C 3.6875 -5.867188 4.078125 -4.382812 4.859375 -3.28125 C 5.640625 -2.175781 6.734375 -1.625 8.140625 -1.625 C 9.398438 -1.625 10.367188 -1.910156 11.046875 -2.484375 C 11.722656 -3.054688 12.171875 -4.050781 12.390625 -5.46875 Z M 14.671875 -5.46875 "/></g></g></g><g fill="#ffffff" fill-opacity="1"><g transform="translate(42.604886, 144.211128)"><g><path d="M 7.84375 -10.84375 C 7.507812 -10.894531 7.148438 -10.921875 6.765625 -10.921875 C 5.328125 -10.921875 4.351562 -10.3125 3.84375 -9.09375 L 3.84375 0 L 1.65625 0 L 1.65625 -12.796875 L 3.78125 -12.796875 L 3.828125 -11.328125 C 4.546875 -12.472656 5.5625 -13.046875 6.875 -13.046875 C 7.300781 -13.046875 7.625 -12.988281 7.84375 -12.875 Z M 7.84375 -10.84375 "/></g></g></g><g fill="#ffffff" fill-opacity="1"><g transform="translate(50.80297, 144.211128)"><g><path d="M 1.078125 -6.515625 C 1.078125 -7.773438 1.320312 -8.90625 1.8125 -9.90625 C 2.3125 -10.90625 3 -11.675781 3.875 -12.21875 C 4.75 -12.769531 5.753906 -13.046875 6.890625 -13.046875 C 8.628906 -13.046875 10.035156 -12.441406 11.109375 -11.234375 C 12.191406 -10.023438 12.734375 -8.414062 12.734375 -6.40625 L 12.734375 -6.265625 C 12.734375 -5.015625 12.492188 -3.894531 12.015625 -2.90625 C 11.535156 -1.914062 10.851562 -1.144531 9.96875 -0.59375 C 9.082031 -0.0390625 8.0625 0.234375 6.90625 0.234375 C 5.175781 0.234375 3.769531 -0.367188 2.6875 -1.578125 C 1.613281 -2.785156 1.078125 -4.378906 1.078125 -6.359375 Z M 3.28125 -6.265625 C 3.28125 -4.835938 3.609375 -3.691406 4.265625 -2.828125 C 4.921875 -1.972656 5.800781 -1.546875 6.90625 -1.546875 C 8.019531 -1.546875 8.90625 -1.984375 9.5625 -2.859375 C 10.21875 -3.734375 10.546875 -4.953125 10.546875 -6.515625 C 10.546875 -7.921875 10.210938 -9.054688 9.546875 -9.921875 C 8.878906 -10.796875 7.992188 -11.234375 6.890625 -11.234375 C 5.804688 -11.234375 4.929688 -10.800781 4.265625 -9.9375 C 3.609375 -9.082031 3.28125 -7.859375 3.28125 -6.265625 Z M 3.28125 -6.265625 "/></g></g></g><g fill="#ffffff" fill-opacity="1"><g transform="translate(64.62023, 144.211128)"><g><path d="M 9.109375 -3.390625 C 9.109375 -3.984375 8.882812 -4.441406 8.4375 -4.765625 C 8 -5.097656 7.222656 -5.378906 6.109375 -5.609375 C 5.003906 -5.847656 4.125 -6.132812 3.46875 -6.46875 C 2.820312 -6.800781 2.34375 -7.195312 2.03125 -7.65625 C 1.71875 -8.113281 1.5625 -8.65625 1.5625 -9.28125 C 1.5625 -10.332031 2.003906 -11.222656 2.890625 -11.953125 C 3.773438 -12.679688 4.910156 -13.046875 6.296875 -13.046875 C 7.742188 -13.046875 8.921875 -12.671875 9.828125 -11.921875 C 10.734375 -11.171875 11.1875 -10.210938 11.1875 -9.046875 L 8.984375 -9.046875 C 8.984375 -9.640625 8.726562 -10.148438 8.21875 -10.578125 C 7.707031 -11.015625 7.066406 -11.234375 6.296875 -11.234375 C 5.492188 -11.234375 4.867188 -11.0625 4.421875 -10.71875 C 3.972656 -10.375 3.75 -9.921875 3.75 -9.359375 C 3.75 -8.828125 3.957031 -8.425781 4.375 -8.15625 C 4.789062 -7.894531 5.546875 -7.640625 6.640625 -7.390625 C 7.734375 -7.148438 8.617188 -6.859375 9.296875 -6.515625 C 9.972656 -6.179688 10.472656 -5.773438 10.796875 -5.296875 C 11.128906 -4.816406 11.296875 -4.234375 11.296875 -3.546875 C 11.296875 -2.398438 10.835938 -1.484375 9.921875 -0.796875 C 9.015625 -0.109375 7.828125 0.234375 6.359375 0.234375 C 5.335938 0.234375 4.429688 0.0507812 3.640625 -0.3125 C 2.859375 -0.675781 2.242188 -1.179688 1.796875 -1.828125 C 1.347656 -2.472656 1.125 -3.175781 1.125 -3.9375 L 3.3125 -3.9375 C 3.351562 -3.207031 3.644531 -2.625 4.1875 -2.1875 C 4.738281 -1.757812 5.460938 -1.546875 6.359375 -1.546875 C 7.191406 -1.546875 7.859375 -1.710938 8.359375 -2.046875 C 8.859375 -2.390625 9.109375 -2.835938 9.109375 -3.390625 Z M 9.109375 -3.390625 "/></g></g></g><g fill="#ffffff" fill-opacity="1"><g transform="translate(77.112548, 144.211128)"><g><path d="M 9.109375 -3.390625 C 9.109375 -3.984375 8.882812 -4.441406 8.4375 -4.765625 C 8 -5.097656 7.222656 -5.378906 6.109375 -5.609375 C 5.003906 -5.847656 4.125 -6.132812 3.46875 -6.46875 C 2.820312 -6.800781 2.34375 -7.195312 2.03125 -7.65625 C 1.71875 -8.113281 1.5625 -8.65625 1.5625 -9.28125 C 1.5625 -10.332031 2.003906 -11.222656 2.890625 -11.953125 C 3.773438 -12.679688 4.910156 -13.046875 6.296875 -13.046875 C 7.742188 -13.046875 8.921875 -12.671875 9.828125 -11.921875 C 10.734375 -11.171875 11.1875 -10.210938 11.1875 -9.046875 L 8.984375 -9.046875 C 8.984375 -9.640625 8.726562 -10.148438 8.21875 -10.578125 C 7.707031 -11.015625 7.066406 -11.234375 6.296875 -11.234375 C 5.492188 -11.234375 4.867188 -11.0625 4.421875 -10.71875 C 3.972656 -10.375 3.75 -9.921875 3.75 -9.359375 C 3.75 -8.828125 3.957031 -8.425781 4.375 -8.15625 C 4.789062 -7.894531 5.546875 -7.640625 6.640625 -7.390625 C 7.734375 -7.148438 8.617188 -6.859375 9.296875 -6.515625 C 9.972656 -6.179688 10.472656 -5.773438 10.796875 -5.296875 C 11.128906 -4.816406 11.296875 -4.234375 11.296875 -3.546875 C 11.296875 -2.398438 10.835938 -1.484375 9.921875 -0.796875 C 9.015625 -0.109375 7.828125 0.234375 6.359375 0.234375 C 5.335938 0.234375 4.429688 0.0507812 3.640625 -0.3125 C 2.859375 -0.675781 2.242188 -1.179688 1.796875 -1.828125 C 1.347656 -2.472656 1.125 -3.175781 1.125 -3.9375 L 3.3125 -3.9375 C 3.351562 -3.207031 3.644531 -2.625 4.1875 -2.1875 C 4.738281 -1.757812 5.460938 -1.546875 6.359375 -1.546875 C 7.191406 -1.546875 7.859375 -1.710938 8.359375 -2.046875 C 8.859375 -2.390625 9.109375 -2.835938 9.109375 -3.390625 Z M 9.109375 -3.390625 "/></g></g></g><g fill="#ffffff" fill-opacity="1"><g transform="translate(89.60512, 144.211128)"><g><path d="M 5.09375 -2.859375 L 12.625 -2.859375 L 12.625 0 L 1.53125 0 L 1.53125 -17.234375 L 5.09375 -17.234375 Z M 5.09375 -2.859375 "/></g></g></g><g fill="#ffffff" fill-opacity="1"><g transform="translate(102.72442, 144.211128)"><g><path d="M 0.78125 -6.515625 C 0.78125 -7.785156 1.023438 -8.914062 1.515625 -9.90625 C 2.003906 -10.90625 2.707031 -11.675781 3.625 -12.21875 C 4.539062 -12.769531 5.609375 -13.046875 6.828125 -13.046875 C 8.554688 -13.046875 9.96875 -12.515625 11.0625 -11.453125 C 12.15625 -10.398438 12.765625 -8.960938 12.890625 -7.140625 L 12.90625 -6.265625 C 12.90625 -4.304688 12.359375 -2.734375 11.265625 -1.546875 C 10.171875 -0.359375 8.695312 0.234375 6.84375 0.234375 C 5 0.234375 3.523438 -0.351562 2.421875 -1.53125 C 1.328125 -2.71875 0.78125 -4.328125 0.78125 -6.359375 Z M 4.203125 -6.265625 C 4.203125 -5.054688 4.429688 -4.128906 4.890625 -3.484375 C 5.347656 -2.835938 6 -2.515625 6.84375 -2.515625 C 7.675781 -2.515625 8.320312 -2.832031 8.78125 -3.46875 C 9.25 -4.101562 9.484375 -5.117188 9.484375 -6.515625 C 9.484375 -7.710938 9.25 -8.632812 8.78125 -9.28125 C 8.320312 -9.9375 7.671875 -10.265625 6.828125 -10.265625 C 5.992188 -10.265625 5.347656 -9.9375 4.890625 -9.28125 C 4.429688 -8.632812 4.203125 -7.628906 4.203125 -6.265625 Z M 4.203125 -6.265625 "/></g></g></g><g fill="#ffffff" fill-opacity="1"><g transform="translate(116.423382, 144.211128)"><g><path d="M 0.8125 -6.5 C 0.8125 -8.457031 1.28125 -10.035156 2.21875 -11.234375 C 3.15625 -12.441406 4.414062 -13.046875 6 -13.046875 C 7.40625 -13.046875 8.5 -12.5625 9.28125 -11.59375 L 9.421875 -12.796875 L 12.515625 -12.796875 L 12.515625 -0.421875 C 12.515625 0.691406 12.257812 1.660156 11.75 2.484375 C 11.25 3.316406 10.535156 3.953125 9.609375 4.390625 C 8.679688 4.828125 7.597656 5.046875 6.359375 5.046875 C 5.421875 5.046875 4.503906 4.859375 3.609375 4.484375 C 2.722656 4.109375 2.050781 3.625 1.59375 3.03125 L 3.109375 0.953125 C 3.960938 1.898438 5 2.375 6.21875 2.375 C 7.125 2.375 7.828125 2.128906 8.328125 1.640625 C 8.835938 1.160156 9.09375 0.472656 9.09375 -0.421875 L 9.09375 -1.09375 C 8.300781 -0.207031 7.257812 0.234375 5.96875 0.234375 C 4.4375 0.234375 3.191406 -0.363281 2.234375 -1.5625 C 1.285156 -2.769531 0.8125 -4.367188 0.8125 -6.359375 Z M 4.234375 -6.25 C 4.234375 -5.09375 4.460938 -4.179688 4.921875 -3.515625 C 5.390625 -2.859375 6.03125 -2.53125 6.84375 -2.53125 C 7.882812 -2.53125 8.632812 -2.921875 9.09375 -3.703125 L 9.09375 -9.09375 C 8.632812 -9.875 7.894531 -10.265625 6.875 -10.265625 C 6.050781 -10.265625 5.40625 -9.925781 4.9375 -9.25 C 4.46875 -8.582031 4.234375 -7.582031 4.234375 -6.25 Z M 4.234375 -6.25 "/></g></g></g><g fill="#ffffff" fill-opacity="1"><g transform="translate(130.255749, 144.211128)"><g/></g></g></svg>